<svg xmlns="http://www.w3.org/2000/svg" width="25.559" height="25.559" viewBox="0 0 31.559 31.559"><g id="Flight" transform="translate(-430.941 -275.941)"><rect id="Rectangle_1589" width="31.559" height="31.559" fill="#fff1ec" data-name="Rectangle 1589" rx="5" transform="translate(430.941 275.941)"/><path id="airplane_1_1_Traced_" fill="#ff7545" fill-rule="evenodd" d="M14.111.745c-.474.042-.384.005-3 1.229-1.135.53-2.078.964-2.095.965s-1.064-.4-2.326-.9-2.385-.92-2.5-.949a1.683 1.683 0 0 0-.778-.017 1.06 1.06 0 0 0-.5.4c-.165.264-.223.642-.118.769.03.036.731.528 1.558 1.094s1.5 1.041 1.5 1.054-.384.207-.854.429l-.855.4L2.7 4.865c-.8-.2-1.494-.364-1.547-.365a.286.286 0 0 0-.161.053 11.624 11.624 0 0 0-.826 1.5c-.03.185.04.226 1.191.7.585.24 1.073.446 1.086.458s-.088.075-.225.14c-.245.116-.338.21-.338.342a13.051 13.051 0 0 0 .72 1.515.235.235 0 0 0 .176.072c.071 0 .85-.351 2.476-1.114 1.3-.612 2.377-1.119 2.383-1.125s.045-.354.085-.773c.082-.851.093-.884.286-.868.223.019.228-.162-.081 3.092-.166 1.751-.266 2.939-.25 2.96a.541.541 0 0 0 .411.072 1.037 1.037 0 0 0 .433-.467c.046-.09.6-1.7 1.233-3.581S10.929 4.034 10.957 4a.2.2 0 0 1 .331.076 3.59 3.59 0 0 1-.212.761c-.126.379-.226.693-.22.7.022.022 3.89-1.813 4.076-1.934a1.7 1.7 0 0 0 .807-2.222 1.624 1.624 0 0 0-1.628-.636Z" data-name="airplane (1) 1 (Traced)" transform="translate(438.681 286.941)"/></g></svg>